<?xml version="1.0" encoding="UTF-8" standalone="no"?>
<!-- Created with Inkscape (http://www.inkscape.org/) -->

<svg
   xmlns:dc="http://purl.org/dc/elements/1.1/"
   xmlns:cc="http://creativecommons.org/ns#"
   xmlns:rdf="http://www.w3.org/1999/02/22-rdf-syntax-ns#"
   xmlns:svg="http://www.w3.org/2000/svg"
   xmlns="http://www.w3.org/2000/svg"
   xmlns:sodipodi="http://sodipodi.sourceforge.net/DTD/sodipodi-0.dtd"
   xmlns:inkscape="http://www.inkscape.org/namespaces/inkscape"
   width="106.19532mm"
   height="49.401352mm"
   viewBox="0 0 106.19532 49.401352"
   version="1.1"
   id="svg4696"
   inkscape:export-filename="C:\Users\Ada\Documents\coding\xop web files taken from bway 150301\ADA 180725\ADA 180725\Website XOP\xop_icons\logo new.png"
   inkscape:export-xdpi="270.46774"
   inkscape:export-ydpi="270.46774"
   inkscape:version="0.92.3 (2405546, 2018-03-11)"
   sodipodi:docname="logo project.svg">
  <defs
     id="defs4690" />
  <sodipodi:namedview
     id="base"
     pagecolor="#ffffff"
     bordercolor="#666666"
     borderopacity="1.0"
     inkscape:pageopacity="0.0"
     inkscape:pageshadow="2"
     inkscape:zoom="0.7"
     inkscape:cx="291.60667"
     inkscape:cy="175.91334"
     inkscape:document-units="mm"
     inkscape:current-layer="layer1"
     showgrid="false"
     inkscape:window-width="1479"
     inkscape:window-height="821"
     inkscape:window-x="219"
     inkscape:window-y="35"
     inkscape:window-maximized="0" />
  <metadata
     id="metadata4693">
    <rdf:RDF>
      <cc:Work
         rdf:about="">
        <dc:format>image/svg+xml</dc:format>
        <dc:type
           rdf:resource="http://purl.org/dc/dcmitype/StillImage" />
        <dc:title></dc:title>
      </cc:Work>
    </rdf:RDF>
  </metadata>
  <g
     inkscape:label="Layer 1"
     inkscape:groupmode="layer"
     id="layer1"
     transform="translate(-47.909458,-60.688291)">
    <text
       xml:space="preserve"
       style="font-style:normal;font-variant:normal;font-weight:500;font-stretch:semi-condensed;font-size:11.516716px;line-height:1.25;font-family:'HK Nova';-inkscape-font-specification:'HK Nova, Medium Semi-Condensed';font-variant-ligatures:normal;font-variant-caps:normal;font-variant-numeric:normal;font-feature-settings:normal;text-align:start;letter-spacing:0px;word-spacing:0px;writing-mode:lr-tb;text-anchor:start;fill:#ff7a33;fill-opacity:1;stroke:none;stroke-width:0.28791791"
       x="51.842354"
       y="100.75119"
       id="text5243"
       transform="scale(0.91895405,1.0881937)"><tspan
         sodipodi:role="line"
         id="tspan5241"
         x="51.842354"
         y="100.75119"
         style="font-style:normal;font-variant:normal;font-weight:500;font-stretch:semi-condensed;font-size:11.516716px;font-family:'HK Nova';-inkscape-font-specification:'HK Nova, Medium Semi-Condensed';font-variant-ligatures:normal;font-variant-caps:normal;font-variant-numeric:normal;font-feature-settings:normal;text-align:start;letter-spacing:-0.82344538px;word-spacing:0px;writing-mode:lr-tb;text-anchor:start;fill:#ff7a33;fill-opacity:1;stroke-width:0.28791791">XØ PROJECTS INC</tspan></text>
    <path
       d="m 154.10478,76.146772 c 0,8.530848 -6.92406,15.45343 -15.45896,15.45343 -8.53494,0 -15.46072,-6.922582 -15.46072,-15.45343 0,-8.53253 6.92578,-15.458481 15.46072,-15.458481 8.5349,0 15.45896,6.925951 15.45896,15.458481"
       style="fill:#6d6d6d;fill-opacity:1;fill-rule:evenodd;stroke:none;stroke-width:1.68451011"
       id="path166"
       inkscape:connector-curvature="0" />
    <path
       d="m 144.20698,68.56641 c 0.8417,-1.05479 1.68339,-1.535921 3.09183,-1.535921 1.26337,0 2.10675,0.874785 2.10675,2.018736 0,1.051425 -0.84338,1.929576 -1.91955,1.929576 -0.60891,0 -1.07948,-0.220361 -1.45056,-0.481131 -0.32896,-0.222077 -0.61063,-0.440767 -0.93954,-0.440767 -1.07953,0 -3.7935,3.906257 -3.7935,4.520289 0,0.13124 0.0927,0.571974 0.23286,1.182641 l 1.45227,6.010795 c 0.14153,0.614032 0.3763,1.231428 1.17401,1.315542 1.68504,0.222077 3.46287,-3.374655 4.07517,-4.564027 l 0.93613,0.482813 c -1.45401,2.896886 -3.32626,6.320329 -7.26312,6.320329 -3.74793,0 -3.93348,-4.52029 -4.44796,-7.062215 l -4.54745,5.702935 c -0.56167,0.743564 -1.82503,1.35928 -3.04289,1.35928 -1.26671,0 -2.25182,-0.965627 -2.25182,-2.106216 0,-1.140586 0.79787,-2.020419 2.01568,-2.020419 0.65613,0 1.07785,0.265805 1.49951,0.836095 0.60896,0.834413 1.26509,0.0858 1.49784,-0.174962 l 4.17132,-4.65151 c 0.23428,-0.264136 0.14153,-0.878151 0.0431,-1.315543 l -0.88895,-3.51092 c -0.42172,-1.576298 -0.89061,-3.157642 -1.49785,-3.110537 -1.40843,0.08411 -3.56236,3.682511 -4.21849,4.691882 l -0.9834,-0.35498 c 1.49954,-2.499871 3.79346,-6.313601 7.35755,-6.313601 1.68341,0 2.71569,0.48113 3.27736,1.796672 0.51446,1.231434 0.70338,2.414078 0.98505,3.640461 z"
       style="fill:#ffffff;fill-opacity:1;fill-rule:nonzero;stroke:none;stroke-width:1.68451011"
       id="path168"
       inkscape:connector-curvature="0" />
    <path
       d="m 124.95286,91.477395 h -0.18887 v -1.872374 h -0.40833 v -0.211968 h 1.01201 v 0.211968 h -0.41501 z"
       style="fill:#000000;fill-opacity:1;fill-rule:nonzero;stroke:none;stroke-width:1.68451011"
       id="path170"
       inkscape:connector-curvature="0" />
    <path
       d="m 124.95286,91.477395 h -0.18887 v -1.872374 h -0.40833 v -0.211968 h 1.01201 v 0.211968 h -0.41501 z"
       style="fill:none;stroke:#000000;stroke-width:0.01684512;stroke-linecap:butt;stroke-linejoin:miter;stroke-miterlimit:4;stroke-dasharray:none;stroke-opacity:1"
       id="path172"
       inkscape:connector-curvature="0" />
    <path
       d="m 125.9834,89.32744 0.61569,1.752939 0.61905,-1.752939 0.34425,2.207155 h -0.19555 l -0.2142,-1.413118 h -0.004 l -0.5465,1.495549 -0.54483,-1.495549 h -0.004 l -0.21612,1.413118 h -0.19412 z"
       style="fill:#000000;fill-opacity:1;fill-rule:nonzero;stroke:none;stroke-width:1.68451011"
       id="path174"
       inkscape:connector-curvature="0" />
    <path
       d="m 125.9834,89.32744 0.61569,1.752939 0.61905,-1.752939 0.34425,2.207155 h -0.19555 l -0.2142,-1.413118 h -0.004 l -0.5465,1.495549 -0.54483,-1.495549 h -0.004 l -0.21612,1.413118 h -0.19412 z"
       style="fill:none;stroke:#000000;stroke-width:0.01684512;stroke-linecap:butt;stroke-linejoin:miter;stroke-miterlimit:4;stroke-dasharray:none;stroke-opacity:1"
       id="path176"
       inkscape:connector-curvature="0" />
  </g>
</svg>
